<svg width="24" height="24" fill="none" xmlns="http://www.w3.org/2000/svg"><g id="Icon/Fill/Dark"><path id="Mask" fill-rule="evenodd" clip-rule="evenodd" d="M12 6a1 1 0 001-1V3a1 1 0 10-2 0v2a1 1 0 001 1zm9 5h-2a1 1 0 100 2h2a1 1 0 100-2zM5 11a1 1 0 110 2H3a1 1 0 110-2h2zm1.22-5.972a1 1 0 00-1.39 1.439l1.44 1.39c.195.188.445.28.695.28a1 1 0 00.695-1.719l-1.44-1.39zm11.51 2.83a1 1 0 01-1.39-1.44l1.44-1.39a1 1 0 011.39 1.439l-1.44 1.39zM12 18a1 1 0 00-1 1v2a1 1 0 102 0v-2a1 1 0 00-1-1zm4.316-1.832a1.002 1.002 0 011.414-.025l1.439 1.39a1 1 0 01-1.39 1.439l-1.439-1.39a1 1 0 01-.024-1.414zM6.27 16.143l-1.439 1.39a1 1 0 001.39 1.439l1.439-1.39a1 1 0 00-1.39-1.44zM8 12c0-2.206 1.794-4 4-4s4 1.794 4 4-1.794 4-4 4-4-1.794-4-4z" fill="#231F20"/><mask id="mask0" maskUnits="userSpaceOnUse" x="2" y="2" width="20" height="20"><path id="Mask_2" fill-rule="evenodd" clip-rule="evenodd" d="M12 6a1 1 0 001-1V3a1 1 0 10-2 0v2a1 1 0 001 1zm9 5h-2a1 1 0 100 2h2a1 1 0 100-2zM5 11a1 1 0 110 2H3a1 1 0 110-2h2zm1.22-5.972a1 1 0 00-1.39 1.439l1.44 1.39c.195.188.445.28.695.28a1 1 0 00.695-1.719l-1.44-1.39zm11.51 2.83a1 1 0 01-1.39-1.44l1.44-1.39a1 1 0 011.39 1.439l-1.44 1.39zM12 18a1 1 0 00-1 1v2a1 1 0 102 0v-2a1 1 0 00-1-1zm4.316-1.832a1.002 1.002 0 011.414-.025l1.439 1.39a1 1 0 01-1.39 1.439l-1.439-1.39a1 1 0 01-.024-1.414zM6.27 16.143l-1.439 1.39a1 1 0 001.39 1.439l1.439-1.39a1 1 0 00-1.39-1.44zM8 12c0-2.206 1.794-4 4-4s4 1.794 4 4-1.794 4-4 4-4-1.794-4-4z" fill="#fff"/></mask><g mask="url(#mask0)"><g id="🎨 Color"><path id="Base" fill="#0D1C2E" d="M0 0h24v24H0z"/></g></g></g></svg>