<svg width="30" height="30" fill="none" xmlns="http://www.w3.org/2000/svg"><path d="M2.5 15c0-1.081.138-2.129.395-3.13a3.75 3.75 0 003.342-5.786 12.488 12.488 0 015.42-3.131 3.75 3.75 0 006.684 0 12.488 12.488 0 015.419 3.13 3.75 3.75 0 003.344 5.788 12.568 12.568 0 010 6.259 3.751 3.751 0 00-3.344 5.786 12.488 12.488 0 01-5.419 3.131 3.75 3.75 0 00-6.685 0 12.488 12.488 0 01-5.419-3.13 3.75 3.75 0 00-3.343-5.788A12.57 12.57 0 012.5 15zm6.005 3.75a6.245 6.245 0 01.705 4.405c.51.362 1.052.676 1.621.938A6.241 6.241 0 0115 22.5c1.575 0 3.047.589 4.169 1.593a10.007 10.007 0 001.621-.938 6.241 6.241 0 01.705-4.405 6.242 6.242 0 013.462-2.813c.058-.623.058-1.25 0-1.874a6.241 6.241 0 01-3.463-2.813 6.242 6.242 0 01-.705-4.405 9.984 9.984 0 00-1.622-.937A6.241 6.241 0 0115 7.5a6.24 6.24 0 01-4.169-1.592 9.988 9.988 0 00-1.621.937 6.241 6.241 0 01-.705 4.405 6.241 6.241 0 01-3.463 2.813 10.157 10.157 0 000 1.874 6.241 6.241 0 013.464 2.813h-.001zm6.495 0a3.75 3.75 0 110-7.5 3.75 3.75 0 010 7.5zm0-2.5a1.25 1.25 0 100-2.5 1.25 1.25 0 000 2.5z" fill="#fff"/></svg>