<svg width="44" height="48" viewBox="0 0 44 48" fill="none" xmlns="http://www.w3.org/2000/svg">
<circle cx="22" cy="24" r="22" fill="white"/>
<path d="M21.7823 11.2204C25.8185 11.2204 28.9433 12.3401 31.1567 14.5796C33.3701 16.819 34.4768 19.9959 34.4768 24.1102C34.4768 28.2245 33.3701 31.4014 31.1567 33.6408C28.9433 35.8803 25.8185 37 21.7823 37H11.822V11.2204H21.7823ZM21.5089 32.7034C23.9566 32.7034 25.7924 31.9743 27.0163 30.516C28.2662 29.0318 28.8912 26.8965 28.8912 24.1102C28.8912 21.3239 28.2662 19.2017 27.0163 17.7434C25.7924 16.2591 23.9566 15.517 21.5089 15.517H17.2123V32.7034H21.5089Z" fill="#FF5300"/>
</svg>
